<svg width="1024" height="1024" viewBox="0 0 1024 1024" xmlns="http://www.w3.org/2000/svg">
  <!-- Background -->
  <rect width="1024" height="1024" fill="#1A1A1A" rx="180"/>
  
  <!-- Squarified App Icon -->
  <g transform="translate(256, 256)">
    <!-- Winged Shield Focus -->
    <g transform="translate(0, 0)">
      <!-- Shield Base -->
      <path d="M256 64 L256 384 Q256 512 384 576 Q512 512 512 384 L512 64 Z" 
            fill="#E4CD96" stroke="#BA8E48" stroke-width="16"/>
      
      <!-- Large Wings -->
      <path d="M224 128 Q128 192 64 320 Q128 384 224 448 L224 128 Z" 
            fill="#E4CD96" stroke="#BA8E48" stroke-width="12"/>
      
      <path d="M544 128 Q640 192 704 320 Q640 384 544 448 L544 128 Z" 
            fill="#E4CD96" stroke="#BA8E48" stroke-width="12"/>
      
      <!-- Eagle Heads -->
      <g transform="translate(160, 160)">
        <circle cx="0" cy="0" r="64" fill="#E4CD96" stroke="#BA8E48" stroke-width="8"/>
        <path d="M-24 -16 Q0 -32 24 -16" fill="none" stroke="#BA8E48" stroke-width="8"/>
        <circle cx="-16" cy="-8" r="8" fill="#BA8E48"/>
        <circle cx="16" cy="-8" r="8" fill="#BA8E48"/>
        <path d="M-32 16 Q0 32 32 16" fill="none" stroke="#BA8E48" stroke-width="4"/>
      </g>
      
      <g transform="translate(608, 160)">
        <circle cx="0" cy="0" r="64" fill="#E4CD96" stroke="#BA8E48" stroke-width="8"/>
        <path d="M-24 -16 Q0 -32 24 -16" fill="none" stroke="#BA8E48" stroke-width="8"/>
        <circle cx="-16" cy="-8" r="8" fill="#BA8E48"/>
        <circle cx="16" cy="-8" r="8" fill="#BA8E48"/>
        <path d="M-32 16 Q0 32 32 16" fill="none" stroke="#BA8E48" stroke-width="4"/>
      </g>
      
      <!-- Large GR Monogram -->
      <text x="384" y="320" font-family="serif" font-size="128" font-weight="bold" 
            text-anchor="middle" fill="#1A1A1A">GR</text>
    </g>
  </g>
</svg>
